<mxfile host="app.diagrams.net" modified="2023-12-04T03:19:29.991Z" agent="Mozilla/5.0 (Windows NT 10.0; Win64; x64) AppleWebKit/537.36 (KHTML, like Gecko) Chrome/119.0.0.0 Safari/537.36" version="22.1.5" etag="4Vu6S8b2TBeMDGHpQpPC" type="github">
  <diagram name="第 1 页" id="F1dDxB_HWlhBsN7M2Mi_">
    <mxGraphModel>
      <root>
        <mxCell id="0" />
        <mxCell id="1" parent="0" />
      </root>
    </mxGraphModel>
  </diagram>
</mxfile>
